<svg width="100" height="100" viewBox="0 0 100 100" fill="none" xmlns="http://www.w3.org/2000/svg">
    <g clip-path="url(#clip0_1234_529)">
        <path
            d="M46.6792 23.2422C48.5151 21.4062 51.4839 21.4062 53.3003 23.2422L75.1948 45.1172C77.0308 46.9531 77.0308 49.9219 75.1948 51.7383C73.3589 53.5547 70.3901 53.5742 68.5737 51.7383L54.7066 37.8711V73.4375C54.7066 76.0352 52.6167 78.125 50.0191 78.125C47.4214 78.125 45.3316 76.0352 45.3316 73.4375V37.8711L31.4644 51.7383C29.6284 53.5742 26.6597 53.5742 24.8433 51.7383C23.0269 49.9023 23.0073 46.9336 24.8433 45.1172L46.6792 23.2422Z"
            fill="white" />
        <path opacity="1"
            d="M50 100C63.2608 100 75.9785 94.7322 85.3553 85.3553C94.7322 75.9785 100 63.2608 100 50C100 36.7392 94.7322 24.0215 85.3553 14.6447C75.9785 5.26784 63.2608 0 50 0C36.7392 0 24.0215 5.26784 14.6447 14.6447C5.26784 24.0215 0 36.7392 0 50C0 63.2608 5.26784 75.9785 14.6447 85.3553C24.0215 94.7322 36.7392 100 50 100ZM75.1953 45.1172C77.0312 46.9531 77.0312 49.9219 75.1953 51.7383C73.3594 53.5547 70.3906 53.5742 68.5742 51.7383L54.707 37.8711V73.4375C54.707 76.0352 52.6172 78.125 50.0195 78.125C47.4219 78.125 45.332 76.0352 45.332 73.4375V37.8711L31.4648 51.7383C29.6289 53.5742 26.6602 53.5742 24.8438 51.7383C23.0273 49.9023 23.0078 46.9336 24.8438 45.1172L46.6797 23.2422C48.5156 21.4062 51.4844 21.4062 53.3008 23.2422L75.1953 45.1172Z"
            fill="#800080" />
    </g>

</svg>